<?xml version="1.0" encoding="UTF-8" standalone="no"?>
<!DOCTYPE svg PUBLIC "-//W3C//DTD SVG 1.1//EN"
 "http://www.w3.org/Graphics/SVG/1.1/DTD/svg11.dtd">
<!-- Generated by graphviz version 2.40.1 (20161225.0304)
 -->
<!-- Title: Database Structure Pages: 1 -->
<svg width="339pt" height="262pt"
 viewBox="0.00 0.00 339.00 261.70" xmlns="http://www.w3.org/2000/svg" xmlns:xlink="http://www.w3.org/1999/xlink">
<g id="graph0" class="graph" transform="scale(1 1) rotate(0) translate(4 257.7)">
<title>Database Structure</title>
<polygon fill="#ffffff" stroke="transparent" points="-4,4 -4,-257.7 335,-257.7 335,4 -4,4"/>
<text text-anchor="middle" x="165.5" y="-238.5" font-family="Helvetica,sans-Serif" font-size="14.00" fill="#000000">ER Diagram: robot_navigation</text>
<!-- route_points -->
<g id="node1" class="node">
<title>route_points</title>
<polygon fill="#dddddd" stroke="transparent" points="8,-195.85 8,-215.85 117,-215.85 117,-195.85 8,-195.85"/>
<polygon fill="none" stroke="#000000" points="8,-195.85 8,-215.85 117,-215.85 117,-195.85 8,-195.85"/>
<text text-anchor="start" x="27.5034" y="-201.65" font-family="Times,serif" font-size="14.00" fill="#000000">route_points</text>
<polygon fill="none" stroke="#000000" points="8,-175.85 8,-195.85 117,-195.85 117,-175.85 8,-175.85"/>
<text text-anchor="start" x="47.0562" y="-182.65" font-family="Times,serif" font-size="14.00" fill="#000000">id:</text>
<text text-anchor="start" x="61.8354" y="-182.65" font-family="Helvetica,sans-Serif" font-style="oblique" font-size="10.00" fill="#000000">INT</text>
<polygon fill="none" stroke="#000000" points="8,-155.85 8,-175.85 117,-175.85 117,-155.85 8,-155.85"/>
<text text-anchor="start" x="29.1733" y="-162.65" font-family="Times,serif" font-size="14.00" fill="#000000">route_id:</text>
<text text-anchor="start" x="79.7183" y="-162.65" font-family="Helvetica,sans-Serif" font-style="oblique" font-size="10.00" fill="#000000">INT</text>
<polygon fill="none" stroke="#000000" points="8,-135.85 8,-155.85 117,-155.85 117,-135.85 8,-135.85"/>
<text text-anchor="start" x="29.9424" y="-142.65" font-family="Times,serif" font-size="14.00" fill="#000000">position:</text>
<text text-anchor="start" x="78.9492" y="-142.65" font-family="Helvetica,sans-Serif" font-style="oblique" font-size="10.00" fill="#000000">INT</text>
<polygon fill="none" stroke="#000000" points="8,-115.85 8,-135.85 117,-135.85 117,-115.85 8,-115.85"/>
<text text-anchor="start" x="28.73" y="-122.65" font-family="Times,serif" font-size="14.00" fill="#000000">action:</text>
<text text-anchor="start" x="66.8267" y="-122.65" font-family="Helvetica,sans-Serif" font-style="oblique" font-size="10.00" fill="#000000">ENUM</text>
<polygon fill="none" stroke="#000000" points="8,-95.85 8,-115.85 117,-115.85 117,-95.85 8,-95.85"/>
<text text-anchor="start" x="20.9541" y="-102.65" font-family="Times,serif" font-size="14.00" fill="#000000">direction:</text>
<text text-anchor="start" x="74.6025" y="-102.65" font-family="Helvetica,sans-Serif" font-style="oblique" font-size="10.00" fill="#000000">ENUM</text>
<polygon fill="none" stroke="#000000" points="8,-75.85 8,-95.85 117,-95.85 117,-75.85 8,-75.85"/>
<text text-anchor="start" x="12.7871" y="-82.65" font-family="Times,serif" font-size="14.00" fill="#000000">capacity:</text>
<text text-anchor="start" x="63.3115" y="-82.65" font-family="Helvetica,sans-Serif" font-style="oblique" font-size="10.00" fill="#000000">SMALLINT</text>
<polygon fill="none" stroke="#000000" points="8,-55.85 8,-75.85 117,-75.85 117,-55.85 8,-55.85"/>
<text text-anchor="start" x="21.3423" y="-62.65" font-family="Times,serif" font-size="14.00" fill="#000000">landmark:</text>
<text text-anchor="start" x="78.1011" y="-62.65" font-family="Helvetica,sans-Serif" font-style="oblique" font-size="10.00" fill="#000000">TEXT</text>
<polygon fill="none" stroke="#000000" points="8,-35.85 8,-55.85 117,-55.85 117,-35.85 8,-35.85"/>
<text text-anchor="start" x="15.4419" y="-42.65" font-family="Times,serif" font-size="14.00" fill="#000000">created:</text>
<text text-anchor="start" x="59.7388" y="-42.65" font-family="Helvetica,sans-Serif" font-style="oblique" font-size="10.00" fill="#000000">DATETIME</text>
<polygon fill="none" stroke="#000000" points="8,-15.85 8,-35.85 117,-35.85 117,-15.85 8,-15.85"/>
<text text-anchor="start" x="10.7559" y="-22.65" font-family="Times,serif" font-size="14.00" fill="#000000">modified:</text>
<text text-anchor="start" x="64.4248" y="-22.65" font-family="Helvetica,sans-Serif" font-style="oblique" font-size="10.00" fill="#000000">DATETIME</text>
</g>
<!-- routes -->
<g id="node2" class="node">
<title>routes</title>
<polygon fill="#dddddd" stroke="transparent" points="223,-180.85 223,-200.85 323,-200.85 323,-180.85 223,-180.85"/>
<polygon fill="none" stroke="#000000" points="223,-180.85 223,-200.85 323,-200.85 323,-180.85 223,-180.85"/>
<text text-anchor="start" x="255.8931" y="-186.65" font-family="Times,serif" font-size="14.00" fill="#000000">routes</text>
<polygon fill="none" stroke="#000000" points="223,-160.85 223,-180.85 323,-180.85 323,-160.85 223,-160.85"/>
<text text-anchor="start" x="257.5562" y="-167.65" font-family="Times,serif" font-size="14.00" fill="#000000">id:</text>
<text text-anchor="start" x="272.3354" y="-167.65" font-family="Helvetica,sans-Serif" font-style="oblique" font-size="10.00" fill="#000000">INT</text>
<polygon fill="none" stroke="#000000" points="223,-140.85 223,-160.85 323,-160.85 323,-140.85 223,-140.85"/>
<text text-anchor="start" x="231.8169" y="-147.65" font-family="Times,serif" font-size="14.00" fill="#000000">name:</text>
<text text-anchor="start" x="266.0239" y="-147.65" font-family="Helvetica,sans-Serif" font-style="oblique" font-size="10.00" fill="#000000">VARCHAR</text>
<polygon fill="none" stroke="#000000" points="223,-120.85 223,-140.85 323,-140.85 323,-120.85 223,-120.85"/>
<text text-anchor="start" x="225.9419" y="-127.65" font-family="Times,serif" font-size="14.00" fill="#000000">created:</text>
<text text-anchor="start" x="270.2388" y="-127.65" font-family="Helvetica,sans-Serif" font-style="oblique" font-size="10.00" fill="#000000">DATETIME</text>
</g>
<!-- route_points&#45;&gt;routes -->
<g id="edge1" class="edge">
<title>route_points:route_id&#45;&gt;routes:id</title>
<path fill="none" stroke="#444444" stroke-dasharray="5,2" d="M117,-165.85C160.4788,-165.85 173.796,-170.0993 212.5621,-170.7632"/>
<polygon fill="#444444" stroke="#444444" points="222.9709,-174.3499 213.0003,-170.7668 223.0291,-167.3501 222.9709,-174.3499"/>
</g>
</g>
</svg>
